<svg width="22" height="41" viewBox="0 0 22 41" fill="none" xmlns="http://www.w3.org/2000/svg">
<path fill-rule="evenodd" clip-rule="evenodd" d="M21.4215 0.459043C21.5671 0.604186 21.6825 0.77661 21.7613 0.966438C21.84 1.15627 21.8806 1.35977 21.8806 1.56529C21.8806 1.77082 21.84 1.97432 21.7613 2.16415C21.6825 2.35398 21.5671 2.5264 21.4215 2.67154L3.77467 20.3153L21.4215 37.959C21.7149 38.2524 21.8798 38.6504 21.8798 39.0653C21.8798 39.4802 21.7149 39.8781 21.4215 40.1715C21.1281 40.4649 20.7302 40.6298 20.3153 40.6298C19.9004 40.6298 19.5024 40.4649 19.209 40.1715L0.459042 21.4215C0.313532 21.2764 0.198085 21.104 0.119315 20.9141C0.0405449 20.7243 0 20.5208 0 20.3153C0 20.1098 0.0405449 19.9063 0.119315 19.7164C0.198085 19.5266 0.313532 19.3542 0.459042 19.209L19.209 0.459043C19.3542 0.313533 19.5266 0.198087 19.7164 0.119317C19.9063 0.0405464 20.1098 0 20.3153 0C20.5208 0 20.7243 0.0405464 20.9141 0.119317C21.104 0.198087 21.2764 0.313533 21.4215 0.459043V0.459043Z" fill="white"/>
</svg>
