<svg width="22" height="41" viewBox="0 0 22 41" fill="none" xmlns="http://www.w3.org/2000/svg">
<path fill-rule="evenodd" clip-rule="evenodd" d="M0.459317 40.1707C0.313806 40.0256 0.198361 39.8532 0.119591 39.6633C0.0408208 39.4735 0.00027442 39.27 0.00027442 39.0645C0.00027442 38.8589 0.0408208 38.6554 0.119591 38.4656C0.198361 38.2758 0.313806 38.1034 0.459317 37.9582L18.1062 20.3145L0.459317 2.67072C0.165921 2.37732 0.00109398 1.97939 0.00109398 1.56447C0.00109398 1.14954 0.165921 0.751614 0.459317 0.458218C0.752712 0.164822 1.15064 -4.64916e-06 1.56557 -4.64916e-06C1.98049 -4.64916e-06 2.37842 0.164822 2.67182 0.458218L21.4218 19.2082C21.5673 19.3534 21.6828 19.5258 21.7615 19.7156C21.8403 19.9054 21.8809 20.1089 21.8809 20.3145C21.8809 20.52 21.8403 20.7235 21.7615 20.9133C21.6828 21.1032 21.5673 21.2756 21.4218 21.4207L2.67182 40.1707C2.52667 40.3162 2.35425 40.4317 2.16442 40.5104C1.97459 40.5892 1.77109 40.6298 1.56557 40.6298C1.36004 40.6298 1.15654 40.5892 0.966713 40.5104C0.776885 40.4317 0.604459 40.3162 0.459317 40.1707V40.1707Z" fill="white"/>
</svg>
