<svg width="159" height="36" viewBox="0 0 159 36" fill="none" xmlns="http://www.w3.org/2000/svg">
<rect x="34.8356" y="13.2317" width="1.69565" height="10.6228" transform="rotate(-90 34.8356 13.2317)" fill="#0051B4"/>
<rect x="2.75525" y="13.2317" width="1.69565" height="11.4332" transform="rotate(-90 2.75525 13.2317)" fill="#0051B4"/>
<rect x="19.0453" y="19.3608" width="2.77813" height="10.6223" transform="rotate(-90 19.0453 19.3608)" fill="#0051B4"/>
<path fill-rule="evenodd" clip-rule="evenodd" d="M30.6482 1.29751C30.0613 1.59681 29.5013 1.94138 28.9729 2.32662V35.8997L30.0058 35.3725L29.9724 35.3071L29.9727 35.307C30.0061 35.3724 30.0061 35.3724 30.0061 35.3724L30.0064 35.3722L30.0071 35.3719L30.0083 35.3712L30.011 35.3699L30.0166 35.367L30.0289 35.3607L30.0584 35.3456L30.1359 35.3054C30.1957 35.2744 30.2716 35.2346 30.3625 35.1865C30.4586 35.1355 30.5539 35.0834 30.6482 35.0303V1.29751ZM33.4263 33.4086C33.5368 33.3337 33.6458 33.2573 33.7532 33.1795C34.0752 33.0083 34.3924 32.8216 34.7039 32.6191C34.8478 32.5256 34.9939 32.4297 35.1419 32.3316V-6.6289e-05C34.5574 0.0532898 33.9846 0.147123 33.4263 0.278606V33.4086ZM13.5708 -7.7235e-05C14.1411 0.0519763 14.7002 0.142563 15.2456 0.269057V33.3782C15.1307 33.3066 15.0137 33.2333 14.8949 33.1582C14.7404 33.0606 14.5888 32.9602 14.4401 32.8571C14.2843 32.7641 14.1297 32.6674 13.9766 32.5668C13.8431 32.4791 13.7078 32.3895 13.5708 32.2979V-7.7235e-05ZM18.2666 35.1398C18.1849 35.0957 18.104 35.0508 18.0238 35.0052V1.27677C18.6255 1.58083 19.1991 1.9324 19.7397 2.32653V35.9109L18.6161 35.3257L18.7181 35.1297L18.7179 35.1296L18.6288 35.3006C18.6158 35.3255 18.6158 35.3255 18.6158 35.3255L18.6155 35.3254L18.6149 35.325L18.6136 35.3244L18.6111 35.3231L18.6057 35.3202L18.5937 35.314L18.565 35.299L18.4892 35.2589C18.4306 35.2279 18.356 35.188 18.2666 35.1398ZM45.4587 3.99097V22.6172C45.6225 22.3842 45.7796 22.144 45.9294 21.8967C46.4643 21.0135 46.987 20.01 47.4329 18.8921C47.7832 18.0136 48.0263 17.1189 48.1683 16.2225C48.4596 15.2661 48.6393 14.2589 48.6916 13.2151C48.7055 12.9381 48.7127 12.6579 48.7127 12.3747C48.7127 9.14384 47.4797 6.20099 45.4587 3.99097ZM8.39233e-05 12.3747C8.39233e-05 9.19722 1.19263 6.29831 3.15455 4.10111V22.3771C3.06263 22.218 2.97461 22.0576 2.89046 21.8959C2.49068 21.3336 2.1325 20.7302 1.8223 20.0882C1.3054 19.0183 0.827214 17.7847 0.489956 16.4034C0.364909 15.8912 0.273575 15.3787 0.214536 14.8682C0.116284 14.337 0.0515318 13.7934 0.022644 13.2393C0.00780392 12.9547 8.39233e-05 12.6664 8.39233e-05 12.3747Z" fill="#0051B4"/>
<path fill-rule="evenodd" clip-rule="evenodd" d="M30.6481 1.29756C30.0612 1.59686 29.5012 1.94143 28.9728 2.32667V35.8998L30.0057 35.3726L29.9723 35.3071L29.9726 35.307C30.006 35.3724 30.006 35.3724 30.006 35.3724L30.0063 35.3723L30.007 35.3719L30.0083 35.3713L30.0109 35.3699L30.0165 35.3671L30.0288 35.3607L30.0583 35.3456L30.1358 35.3055C30.1956 35.2744 30.2716 35.2346 30.3624 35.1865C30.4586 35.1355 30.5538 35.0835 30.6481 35.0303V1.29756ZM33.4262 33.4087C33.5367 33.3338 33.6457 33.2574 33.7531 33.1795C34.0751 33.0083 34.3923 32.8216 34.7038 32.6191C34.8478 32.5256 34.9938 32.4298 35.1418 32.3317V-1.95716e-05C34.5573 0.0533365 33.9845 0.14717 33.4262 0.278653V33.4087ZM13.5707 -3.05176e-05C14.141 0.052023 14.7001 0.14261 15.2455 0.269104V33.3782C15.1306 33.3067 15.0136 33.2333 14.8948 33.1583C14.7403 33.0607 14.5887 32.9603 14.44 32.8571C14.2842 32.7642 14.1297 32.6674 13.9765 32.5668C13.8431 32.4792 13.7077 32.3895 13.5707 32.2979V-3.05176e-05ZM18.2665 35.1398C18.1849 35.0957 18.1039 35.0509 18.0237 35.0053V1.27682C18.6254 1.58088 19.199 1.93244 19.7396 2.32658V35.9109L18.616 35.3257L18.7181 35.1297L18.7179 35.1297L18.6287 35.3007C18.6157 35.3256 18.6157 35.3256 18.6157 35.3256L18.6154 35.3254L18.6148 35.3251L18.6135 35.3244L18.611 35.3231L18.6056 35.3203L18.5936 35.314L18.5649 35.299L18.4891 35.259C18.4305 35.2279 18.3559 35.1881 18.2665 35.1398ZM45.4586 3.99102V22.6173C45.6225 22.3843 45.7795 22.144 45.9293 21.8967C46.4642 21.0135 46.9869 20.0101 47.4328 18.8922C47.7831 18.0137 48.0262 17.119 48.1683 16.2225C48.4595 15.2661 48.6392 14.2589 48.6915 13.2151C48.7054 12.9382 48.7126 12.6579 48.7126 12.3747C48.7126 9.14388 47.4796 6.20104 45.4586 3.99102ZM0 12.3747C0 9.19726 1.19254 6.29836 3.15446 4.10116V22.3771C3.06255 22.2181 2.97452 22.0576 2.89038 21.8959C2.4906 21.3336 2.13242 20.7303 1.82221 20.0882C1.30532 19.0183 0.82713 17.7848 0.489872 16.4034C0.364825 15.8913 0.273491 15.3788 0.214452 14.8682C0.1162 14.3371 0.0514479 13.7934 0.0225601 13.2394C0.00771999 12.9547 0 12.6664 0 12.3747Z" fill="#0051B4"/>
<path d="M67.4149 9.58566V24H65.5329V17.4649H58.1914V24H56.3094V9.58566H58.1914V15.9139H65.5329V9.58566H67.4149ZM80.9685 17.8992C80.9685 18.2577 80.9478 18.6368 80.9065 19.0366H71.8484C71.9174 20.1534 72.2965 21.0289 72.9858 21.6631C73.689 22.2835 74.5369 22.5937 75.5295 22.5937C76.343 22.5937 77.0185 22.4076 77.5562 22.0353C78.1077 21.6493 78.4938 21.1392 78.7143 20.505H80.741C80.4377 21.5941 79.8311 22.4834 78.9212 23.1727C78.0112 23.8483 76.8807 24.1861 75.5295 24.1861C74.4542 24.1861 73.4891 23.9448 72.6343 23.4623C71.7933 22.9797 71.1315 22.2973 70.6489 21.4149C70.1664 20.5188 69.9251 19.4847 69.9251 18.3128C69.9251 17.1409 70.1595 16.1138 70.6283 15.2314C71.097 14.3491 71.7519 13.6735 72.5929 13.2047C73.4477 12.7222 74.4266 12.4809 75.5295 12.4809C76.6049 12.4809 77.5562 12.7153 78.3835 13.1841C79.2107 13.6528 79.8449 14.3008 80.2861 15.128C80.741 15.9415 80.9685 16.8652 80.9685 17.8992ZM79.0246 17.5063C79.0246 16.7894 78.866 16.1758 78.5489 15.6657C78.2318 15.1418 77.7975 14.7489 77.246 14.4869C76.7083 14.2112 76.1086 14.0733 75.4468 14.0733C74.4955 14.0733 73.6821 14.3766 73.0065 14.9833C72.3448 15.5899 71.9656 16.4309 71.8691 17.5063H79.0246ZM82.7495 18.2921C82.7495 17.134 82.9838 16.1207 83.4526 15.2521C83.9214 14.3697 84.5625 13.6873 85.3759 13.2047C86.2031 12.7222 87.1199 12.4809 88.1264 12.4809C89.1191 12.4809 89.9808 12.6946 90.7115 13.122C91.4422 13.5494 91.9868 14.0871 92.3452 14.7351V12.6671H94.2478V24H92.3452V21.8906C91.973 22.5523 91.4146 23.1038 90.6701 23.545C89.9394 23.9724 89.0846 24.1861 88.1057 24.1861C87.0993 24.1861 86.1893 23.9379 85.3759 23.4416C84.5625 22.9453 83.9214 22.249 83.4526 21.3529C82.9838 20.4567 82.7495 19.4365 82.7495 18.2921ZM92.3452 18.3128C92.3452 17.458 92.1729 16.7135 91.8282 16.0793C91.4835 15.4451 91.0148 14.9626 90.4219 14.6317C89.8429 14.287 89.2018 14.1147 88.4986 14.1147C87.7955 14.1147 87.1544 14.2801 86.5754 14.611C85.9963 14.9419 85.5344 15.4245 85.1898 16.0587C84.8451 16.6929 84.6728 17.4374 84.6728 18.2921C84.6728 19.1607 84.8451 19.919 85.1898 20.567C85.5344 21.2012 85.9963 21.6906 86.5754 22.0353C87.1544 22.3662 87.7955 22.5317 88.4986 22.5317C89.2018 22.5317 89.8429 22.3662 90.4219 22.0353C91.0148 21.6906 91.4835 21.2012 91.8282 20.567C92.1729 19.919 92.3452 19.1676 92.3452 18.3128ZM99.31 8.69639V24H97.4281V8.69639H99.31ZM104.813 14.2181V20.8979C104.813 21.4494 104.93 21.8423 105.165 22.0767C105.399 22.2973 105.806 22.4076 106.385 22.4076H107.77V24H106.074C105.027 24 104.241 23.7587 103.717 23.2762C103.193 22.7936 102.931 22.0009 102.931 20.8979V14.2181H101.463V12.6671H102.931V9.81314H104.813V12.6671H107.77V14.2181H104.813ZM115.676 12.4602C116.53 12.4602 117.302 12.6464 117.992 13.0186C118.681 13.3771 119.219 13.9217 119.605 14.6524C120.005 15.3831 120.205 16.2724 120.205 17.3202V24H118.343V17.589C118.343 16.4585 118.061 15.5968 117.495 15.0039C116.93 14.3973 116.158 14.094 115.179 14.094C114.187 14.094 113.394 14.4042 112.801 15.0246C112.222 15.645 111.932 16.5481 111.932 17.7338V24H110.05V8.69639H111.932V14.2801C112.305 13.7011 112.815 13.253 113.463 12.9359C114.125 12.6188 114.862 12.4602 115.676 12.4602ZM124.251 10.8265C123.892 10.8265 123.589 10.7024 123.341 10.4542C123.093 10.2061 122.969 9.90276 122.969 9.54429C122.969 9.18583 123.093 8.88252 123.341 8.63435C123.589 8.38619 123.892 8.2621 124.251 8.2621C124.595 8.2621 124.885 8.38619 125.119 8.63435C125.367 8.88252 125.492 9.18583 125.492 9.54429C125.492 9.90276 125.367 10.2061 125.119 10.4542C124.885 10.7024 124.595 10.8265 124.251 10.8265ZM125.161 12.6671V24H123.279V12.6671H125.161ZM127.665 18.3128C127.665 17.1409 127.899 16.1207 128.368 15.2521C128.837 14.3697 129.485 13.6873 130.312 13.2047C131.153 12.7222 132.111 12.4809 133.187 12.4809C134.579 12.4809 135.723 12.8187 136.62 13.4943C137.53 14.1698 138.129 15.1074 138.419 16.3068H136.392C136.199 15.6175 135.82 15.0729 135.255 14.6731C134.703 14.2732 134.014 14.0733 133.187 14.0733C132.111 14.0733 131.243 14.4456 130.581 15.1901C129.919 15.9208 129.588 16.9617 129.588 18.3128C129.588 19.6777 129.919 20.7324 130.581 21.4769C131.243 22.2214 132.111 22.5937 133.187 22.5937C134.014 22.5937 134.703 22.4007 135.255 22.0146C135.806 21.6286 136.185 21.0771 136.392 20.3602H138.419C138.115 21.5183 137.509 22.4489 136.599 23.1521C135.689 23.8414 134.552 24.1861 133.187 24.1861C132.111 24.1861 131.153 23.9448 130.312 23.4623C129.485 22.9797 128.837 22.2973 128.368 21.4149C127.899 20.5325 127.665 19.4985 127.665 18.3128ZM140.227 18.2921C140.227 17.134 140.461 16.1207 140.93 15.2521C141.399 14.3697 142.04 13.6873 142.853 13.2047C143.68 12.7222 144.597 12.4809 145.604 12.4809C146.596 12.4809 147.458 12.6946 148.189 13.122C148.919 13.5494 149.464 14.0871 149.822 14.7351V12.6671H151.725V24H149.822V21.8906C149.45 22.5523 148.892 23.1038 148.147 23.545C147.417 23.9724 146.562 24.1861 145.583 24.1861C144.577 24.1861 143.667 23.9379 142.853 23.4416C142.04 22.9453 141.399 22.249 140.93 21.3529C140.461 20.4567 140.227 19.4365 140.227 18.2921ZM149.822 18.3128C149.822 17.458 149.65 16.7135 149.305 16.0793C148.961 15.4451 148.492 14.9626 147.899 14.6317C147.32 14.287 146.679 14.1147 145.976 14.1147C145.273 14.1147 144.632 14.2801 144.053 14.611C143.474 14.9419 143.012 15.4245 142.667 16.0587C142.322 16.6929 142.15 17.4374 142.15 18.2921C142.15 19.1607 142.322 19.919 142.667 20.567C143.012 21.2012 143.474 21.6906 144.053 22.0353C144.632 22.3662 145.273 22.5317 145.976 22.5317C146.679 22.5317 147.32 22.3662 147.899 22.0353C148.492 21.6906 148.961 21.2012 149.305 20.567C149.65 19.919 149.822 19.1676 149.822 18.3128ZM156.787 8.69639V24H154.905V8.69639H156.787Z" fill="#0051B4"/>
</svg>
