<svg width="55" height="55" viewBox="0 0 55 55" fill="none" xmlns="http://www.w3.org/2000/svg">
<g filter="url(#filter0_d_101_3721)">
<rect x="6" y="2" width="43" height="43" rx="21.5" fill="white" shape-rendering="crispEdges"/>
<g clip-path="url(#clip0_101_3721)">
<path d="M17.0759 31.1269C17.2792 31.331 17.435 31.5774 17.5322 31.8486C17.6294 32.1197 17.6655 32.409 17.6381 32.6958C17.5004 34.0229 17.2394 35.3344 16.8585 36.6132C19.5909 35.9805 21.2597 35.2479 22.0177 34.864C22.4476 34.6463 22.9428 34.5947 23.4084 34.7191C24.7431 35.0749 26.1187 35.254 27.5001 35.2519C35.327 35.2519 41.2109 29.7538 41.2109 23.4997C41.2109 17.2476 35.327 11.7476 27.5001 11.7476C19.6731 11.7476 13.7893 17.2476 13.7893 23.4997C13.7893 26.3751 14.9978 29.0428 17.0759 31.1269ZM16.1103 38.7755C15.6462 38.8675 15.1806 38.9518 14.7138 39.0282C14.322 39.0909 14.0243 38.6835 14.179 38.3192C14.3529 37.909 14.5124 37.4929 14.657 37.0715L14.6628 37.0519C15.1486 35.6416 15.5442 34.0199 15.6892 32.5097C13.2859 30.1005 11.8306 26.947 11.8306 23.4997C11.8306 15.9275 18.8466 9.78894 27.5001 9.78894C36.1535 9.78894 43.1695 15.9275 43.1695 23.4997C43.1695 31.072 36.1535 37.2106 27.5001 37.2106C25.9481 37.2126 24.4026 37.0111 22.903 36.6112C21.8845 37.1263 19.6927 38.0645 16.1103 38.7755V38.7755Z" fill="#0051B4"/>
<path d="M19.6655 18.6036C19.6655 18.3439 19.7687 18.0948 19.9524 17.9111C20.136 17.7274 20.3851 17.6243 20.6449 17.6243H34.3557C34.6154 17.6243 34.8645 17.7274 35.0482 17.9111C35.2318 18.0948 35.335 18.3439 35.335 18.6036C35.335 18.8633 35.2318 19.1124 35.0482 19.2961C34.8645 19.4798 34.6154 19.583 34.3557 19.583H20.6449C20.3851 19.583 20.136 19.4798 19.9524 19.2961C19.7687 19.1124 19.6655 18.8633 19.6655 18.6036ZM19.6655 23.5003C19.6655 23.2406 19.7687 22.9915 19.9524 22.8078C20.136 22.6242 20.3851 22.521 20.6449 22.521H34.3557C34.6154 22.521 34.8645 22.6242 35.0482 22.8078C35.2318 22.9915 35.335 23.2406 35.335 23.5003C35.335 23.7601 35.2318 24.0092 35.0482 24.1928C34.8645 24.3765 34.6154 24.4797 34.3557 24.4797H20.6449C20.3851 24.4797 20.136 24.3765 19.9524 24.1928C19.7687 24.0092 19.6655 23.7601 19.6655 23.5003ZM19.6655 28.397C19.6655 28.1373 19.7687 27.8882 19.9524 27.7045C20.136 27.5209 20.3851 27.4177 20.6449 27.4177H28.4796C28.7394 27.4177 28.9885 27.5209 29.1721 27.7045C29.3558 27.8882 29.459 28.1373 29.459 28.397C29.459 28.6568 29.3558 28.9059 29.1721 29.0895C28.9885 29.2732 28.7394 29.3764 28.4796 29.3764H20.6449C20.3851 29.3764 20.136 29.2732 19.9524 29.0895C19.7687 28.9059 19.6655 28.6568 19.6655 28.397Z" fill="#0051B4"/>
</g>
</g>
<defs>
<filter id="filter0_d_101_3721" x="0.556962" y="0.911393" width="53.8861" height="53.8861" filterUnits="userSpaceOnUse" color-interpolation-filters="sRGB">
<feFlood flood-opacity="0" result="BackgroundImageFix"/>
<feColorMatrix in="SourceAlpha" type="matrix" values="0 0 0 0 0 0 0 0 0 0 0 0 0 0 0 0 0 0 127 0" result="hardAlpha"/>
<feOffset dy="4.35443"/>
<feGaussianBlur stdDeviation="2.72152"/>
<feComposite in2="hardAlpha" operator="out"/>
<feColorMatrix type="matrix" values="0 0 0 0 0 0 0 0 0 0 0 0 0 0 0 0 0 0 0.2 0"/>
<feBlend mode="normal" in2="BackgroundImageFix" result="effect1_dropShadow_101_3721"/>
<feBlend mode="normal" in="SourceGraphic" in2="effect1_dropShadow_101_3721" result="shape"/>
</filter>
<clipPath id="clip0_101_3721">
<rect width="31.339" height="31.339" fill="white" transform="translate(11.8306 7.83044)"/>
</clipPath>
</defs>
</svg>
